 http://img210.imageshack.us/img210/5512/exdp.jpg
Format                                   : Matroska
Format version                           : Version 2
File size                                : 1.64 GiB
Duration                                 : 1h 45mn
Overall bit rate                         : 2 221 Kbps
Movie name                               : Men in Black 3 (2012).720p.BRRip.x264.[Dual Audio].6Ch.[Hindi+English].by K@rtik [ExD Exclusive]
Format                                   : AVC
Format/Info                              : Advanced Video Codec
Format profile                           : High@L3.1
Format settings, ReFrames                : 5 frames
Duration                                 : 1h 45mn
Bit rate                                 : 1 133 Kbps
Width                                    : 1 280 pixels
Height                                   : 688 pixels
Display aspect ratio                     : 1.860
Frame rate                               : 23.976 fps
Stream size                              : 824 MiB (49%)
Title                                    : K@rtik
Codec ID                                 : A_AC3
Duration                                 : 1h 45mn
Bit rate                                 : 448 Kbps
Channel(s)                               : 6 channels
Channel positions                        : Front: L C R, Side: L R, LFE
Sampling rate                            : 48.0 KHz
Stream size                              : 339 MiB (20%)
Title                                    : K@rtik
Codec ID                                 : A_AC3
Duration                                 : 1h 45mn
Bit rate mode                            : Constant
Bit rate                                 : 640 Kbps
Channel(s)                               : 6 channels
Channel positions                        : Front: L C R, Side: L R, LFE
Sampling rate                            : 48.0 KHz 
http://img17.imageshack.us/img17/4897/15093091.png 
http://img526.imageshack.us/img526/8679/99359668.png 
http://img35.imageshack.us/img35/7714/40791689.png 
http://img210.imageshack.us/img210/5996/64003410.png 
http://img109.imageshack.us/img109/5317/17912350.png 
http://img809.imageshack.us/img809/2245/95165727.png 
http://img685.imageshack.us/img685/6664/59573676.png 
http://img89.imageshack.us/img89/1854/85575835.png 
http://img834.imageshack.us/img834/1617/81129923.png 
http://img842.imageshack.us/img842/4192/61629541.png 
http://img819.imageshack.us/img819/4518/93193243.png 
http://img692.imageshack.us/img692/231/92478659.png

Thanks To shopie Hindi Audio
